<?xml version="1.0" encoding="UTF-8"?>
<svg width="209px" height="181px" viewBox="0 0 209 181" version="1.1" xmlns="http://www.w3.org/2000/svg" xmlns:xlink="http://www.w3.org/1999/xlink">
    <!-- Generator: Sketch 61 (89581) - https://sketch.com -->
    <title>Slice 1</title>
    <desc>Created with Sketch.</desc>
    <defs>
        <linearGradient x1="50%" y1="0%" x2="50%" y2="97.5027902%" id="linearGradient-1">
            <stop stop-color="#52D057" offset="0%"></stop>
            <stop stop-color="#5686DC" offset="100%"></stop>
        </linearGradient>
        <linearGradient x1="50%" y1="0%" x2="50%" y2="97.5027902%" id="linearGradient-2">
            <stop stop-color="#52D057" offset="0%"></stop>
            <stop stop-color="#5686DC" offset="100%"></stop>
        </linearGradient>
        <path d="M26.0514141,135.026963 L78.1545835,135.026963 L104.206198,180.044613 L52.1038372,180.044613 L26.0513542,135.026963 L0,90.0174558 L26.0516147,45.008468 L52.1032293,90.0174558 L78.1546435,45.0089878 L130.258274,45.0089878 L130.258681,45.0089878 L104.206198,0 L156.309428,0 L182.360842,45.0086413 L182.361202,45.0086413 L208.412917,90.0174558 L156.309788,90.0174558 L130.258274,45.0089878 L104.206198,0 L93.7855523,18.0035951 L104.205851,0 L52.1034899,0 L26.0510068,45.0089878 L52.1031792,90.0175424 L46.8929063,99.0194267 L52.1032293,90.0176291 L78.154844,135.026617 L26.0520158,135.026617 L26.0514141,135.026963 Z M118.037525,156.144287 L130.258681,135.026617 L156.309428,180.044267 L104.206659,180.044267 L78.154844,135.026617 L130.258073,135.026617 L118.037525,156.144287 Z" id="path-3"></path>
        <linearGradient x1="50%" y1="0%" x2="50%" y2="100%" id="linearGradient-5">
            <stop stop-color="#33B64D" offset="0%"></stop>
            <stop stop-color="#30A7D8" offset="100%"></stop>
        </linearGradient>
        <linearGradient x1="50%" y1="0%" x2="50%" y2="100%" id="linearGradient-6">
            <stop stop-color="#33B36C" offset="0%"></stop>
            <stop stop-color="#208B5D" offset="100%"></stop>
        </linearGradient>
    </defs>
    <g id="页面-1" stroke="none" stroke-width="1" fill="none" fill-rule="evenodd">
        <g id="egg">
            <g id="Path-35">
                <g id="Mask" fill="url(#linearGradient-2)" fill-rule="nonzero">
                    <path d="M26.0514141,135.026963 L78.1545835,135.026963 L104.206198,180.044613 L52.1038372,180.044613 L26.0513542,135.026963 L0,90.0174558 L26.0516147,45.008468 L52.1032293,90.0174558 L78.1546435,45.0089878 L130.258274,45.0089878 L130.258681,45.0089878 L104.206198,0 L156.309428,0 L182.360842,45.0086413 L182.361202,45.0086413 L208.412917,90.0174558 L156.309788,90.0174558 L130.258274,45.0089878 L104.206198,0 L93.7855523,18.0035951 L104.205851,0 L52.1034899,0 L26.0510068,45.0089878 L52.1031792,90.0175424 L46.8929063,99.0194267 L52.1032293,90.0176291 L78.154844,135.026617 L26.0520158,135.026617 L26.0514141,135.026963 Z M118.037525,156.144287 L130.258681,135.026617 L156.309428,180.044267 L104.206659,180.044267 L78.154844,135.026617 L130.258073,135.026617 L118.037525,156.144287 Z" id="path-2"></path>
                </g>
                <g id="Clipped">
                    <mask id="mask-4" fill="white">
                        <use xlink:href="#path-3"></use>
                    </mask>
                    <g id="path-2"></g>
                    <path d="M-88.4793914,56.8466417 C-79.9761223,61.0040327 -27.6006887,148.266057 42.3403309,123.537024 C112.281351,98.8079902 101.40201,-60.7107932 247.055385,12.2676373 C392.70876,85.2460679 115.482175,276.368895 115.482175,276.368895 L-130.855239,183.346977 C-130.855239,183.346977 -96.9826604,52.6892508 -88.4793914,56.8466417 Z" id="路径" fill="url(#linearGradient-5)" fill-rule="nonzero" mask="url(#mask-4)"></path>
                </g>
            </g>
            <polygon id="Fill-12" fill="url(#linearGradient-6)" fill-rule="nonzero" points="91.9901759 116.223835 78.9643685 93.7184749 91.9901759 71.2131148 118.041791 71.2131148 131.067598 93.7184749 118.041791 116.223835"></polygon>
        </g>
    </g>
</svg>