<?xml version="1.0" standalone="no"?><!DOCTYPE svg PUBLIC "-//W3C//DTD SVG 1.1//EN" "http://www.w3.org/Graphics/SVG/1.1/DTD/svg11.dtd"><svg t="1582020424709" class="icon" viewBox="0 0 1029 1024" version="1.1" xmlns="http://www.w3.org/2000/svg" p-id="630" xmlns:xlink="http://www.w3.org/1999/xlink" width="200.9765625" height="200"><defs><style type="text/css"></style></defs><path d="M694.186233 31.290789C361.431512-72.389216 88.644372 119.744771 46.377879 228.982094 4.116532 338.224563 102.295821 410.058047 102.295821 410.058047l99.553181 80.169461c99.548036 81.569082 46.377879 168.623443 46.377879 168.623443l122.399934-114.93872s2.742639-4.52304 9.468024-4.173134c7.337718 0.416799 8.850544-3.617403 8.850544-3.617403l215.016759-216.740557s25.388711-28.723102 0-53.267924l21.272179-21.555191s47.818665 44.921656 0 94.567032l-15.370101 16.759431 26.551631 26.911828s93.923824-70.02221 163.632148 24.544822l38.968122-40.676482S685.402582 39.775991 403.625965 229.537826l-19.414594-22.110923s236.011072-226.270329 479.642875 131.77019l73.00155 28.229119-130.566105 135.737498S760.529292 297.470896 635.592545 424.100566c0 0-150.804005 168.973348-169.806946 190.945338-1.23496 1.38933-3.637985 5.773436-3.154293 8.346269 0.751267 4.306922-2.058266 7.090726-2.058266 7.090727-0.895346 4.101095-205.553881 248.175425-205.553881 248.175424s121.370801 225.297798 406.440644 100.8962c285.069843-124.401598 334.123468-389.820146 357.31498-490.716346 23.186367-100.8962 8.161025-353.867384-324.58855-457.547389z" fill="#357bd0" p-id="631"></path><path d="M248.159988 658.850951S24.971912 873.1679 10.56405 885.615263c-14.407862 12.447364-2.12516 24.894727-2.125159 24.894728s80.684028 81.219177 101.472514 102.841261c20.788487 21.62723 29.160484 3.617403 29.160484 3.617403l115.94727-138.377225c0 0.072039-54.888809-80.035674-6.859171-219.730188zM588.525147 377.511715l25.182885 26.42299-174.952612 187.816774-30.122723-31.91856z" fill="#357bd0" p-id="632"></path></svg>