<?xml version="1.0" encoding="UTF-8"?>
<svg width="32px" height="25px" viewBox="0 0 32 25" version="1.1" xmlns="http://www.w3.org/2000/svg" xmlns:xlink="http://www.w3.org/1999/xlink">
    <!-- Generator: Sketch 61 (89581) - https://sketch.com -->
    <title>Slice 1</title>
    <desc>Created with Sketch.</desc>
    <g id="页面-1" stroke="none" stroke-width="1" fill="none" fill-rule="evenodd">
        <g id="serverless" fill="#FD5750" fill-rule="nonzero">
            <path d="M0,19.5679057 L5.50028894,19.5679057 L3.79598555,24.7140042 L0,24.7140042 L0,19.5679057 Z M0,9.78392558 L8.73996158,9.78392558 L7.03593023,14.9300242 L0,14.9300242 L0,9.78392558 Z M0,-5.44071313e-05 L11.9796343,-5.44071313e-05 L10.2756028,5.14631614 L0,5.14631614 L0,-5.44071313e-05 Z M17.4007063,-5.44071313e-05 L31.0748507,-5.44071313e-05 L31.0748507,5.14631614 L15.696675,5.14631614 L17.4007063,-5.44071313e-05 Z M12.4569752,14.9300513 L14.1610065,9.78395283 L31.0748235,9.78395283 L31.0748235,14.9300513 L12.4569752,14.9300513 Z M10.9212251,19.5679057 L31.0747147,19.5679057 L31.0747147,24.7140042 L9.21719375,24.7140042 L10.9212251,19.5679057 Z" id="logo-mark"></path>
        </g>
    </g>
</svg>